<?xml version="1.0" standalone="no"?>
<!DOCTYPE svg PUBLIC "-//W3C//DTD SVG 20010904//EN"
 "http://www.w3.org/TR/2001/REC-SVG-20010904/DTD/svg10.dtd">
<svg version="1.0" xmlns="http://www.w3.org/2000/svg"
 width="512.000000pt" height="512.000000pt" viewBox="0 0 512.000000 512.000000"
 preserveAspectRatio="xMidYMid meet">
<metadata>
Created by potrace 1.14, written by Peter Selinger 2001-2017
</metadata>
<g transform="translate(0.000000,512.000000) scale(0.100000,-0.100000)"
fill="#000000" stroke="none">
<path d="M1180 5039 c0 -51 -4 -78 -10 -74 -15 10 -11 -26 8 -65 16 -33 62
-56 62 -31 0 6 -5 11 -11 11 -6 0 -8 9 -4 21 7 22 13 77 14 147 1 40 2 42 22
32 27 -15 48 -6 46 19 -1 19 -8 21 -64 21 l-63 0 0 -81z"/>
<path d="M1337 5101 c3 -11 15 -29 28 -41 24 -22 24 -22 18 -1 -3 11 -1 21 5
21 13 0 208 -193 245 -242 32 -43 35 -59 7 -33 -24 22 -26 13 -3 -23 25 -40
65 -82 79 -82 6 0 30 21 53 46 22 25 41 39 41 31 0 -8 -7 -20 -15 -27 -30 -25
-6 -22 31 4 41 28 55 27 33 -1 -13 -16 -12 -17 4 -4 9 7 17 20 17 27 0 8 4 14
9 14 4 0 22 12 38 28 84 76 142 112 185 112 10 0 16 4 13 10 -4 6 1 7 11 3 12
-4 15 -3 10 5 -4 8 -2 10 7 6 8 -3 18 0 22 5 3 6 11 9 16 6 15 -10 11 -23 -8
-28 -16 -4 -16 -5 -1 -6 9 0 20 4 23 9 3 6 15 10 26 10 10 0 19 5 19 10 0 6 9
10 21 10 18 0 17 -3 -10 -32 -34 -36 -34 -48 1 -24 29 21 39 20 31 -1 -5 -12
-3 -14 7 -8 10 6 12 3 8 -13 -6 -23 6 -30 17 -11 5 7 13 5 25 -6 17 -16 50
-11 50 7 0 6 11 8 25 5 18 -3 29 1 36 14 14 28 32 23 54 -13 l20 -33 3 28 c3
22 7 27 23 22 12 -4 21 -1 25 9 9 22 37 20 54 -4 19 -26 26 -25 33 2 6 21 7
21 28 -8 36 -46 42 -51 36 -26 -3 15 -1 22 9 22 8 0 14 -5 14 -11 0 -5 5 -7
11 -3 6 3 8 15 6 26 -5 17 -2 19 21 13 15 -4 31 -12 35 -18 5 -7 6 -2 2 11 -4
13 -2 22 4 22 6 0 32 15 58 33 67 48 149 91 211 113 28 10 52 22 52 26 0 13
-74 9 -95 -6 -11 -7 -55 -32 -99 -55 l-79 -41 -121 24 c-261 54 -555 9 -767
-116 l-66 -38 -79 40 c-43 22 -158 76 -254 120 -139 64 -184 80 -221 80 -42 0
-47 -2 -42 -19z m207 -82 c-8 -13 -21 -11 -27 5 -4 10 0 12 14 9 10 -3 16 -9
13 -14z m31 -9 c3 -5 1 -10 -4 -10 -6 0 -11 5 -11 10 0 6 2 10 4 10 3 0 8 -4
11 -10z m33 -35 c-3 -3 -9 2 -12 12 -6 14 -5 15 5 6 7 -7 10 -15 7 -18z m607
-5 c3 -5 1 -10 -4 -10 -6 0 -11 5 -11 10 0 6 2 10 4 10 3 0 8 -4 11 -10z
m-601 -29 c-2 -3 -12 3 -22 13 -16 17 -16 18 5 5 12 -7 20 -15 17 -18z m46 9
c0 -5 -4 -10 -10 -10 -5 0 -10 5 -10 10 0 6 5 10 10 10 6 0 10 -4 10 -10z m50
-10 c-8 -5 -19 -10 -25 -10 -5 0 -3 5 5 10 8 5 20 10 25 10 6 0 3 -5 -5 -10z
m-130 -22 c0 -6 -6 -5 -15 2 -8 7 -15 14 -15 16 0 2 7 1 15 -2 8 -4 15 -11 15
-16z"/>
<path d="M3690 5080 c0 -22 5 -40 10 -40 6 0 10 -8 10 -17 1 -23 50 56 50 80
0 13 -8 17 -35 17 -34 0 -35 -1 -35 -40z"/>
<path d="M3741 5010 c-12 -17 -26 -28 -30 -26 -4 3 -13 -6 -20 -20 -15 -34
-14 -52 2 -29 8 10 19 15 24 12 6 -4 13 -1 16 6 3 6 12 29 21 50 20 45 17 47
-13 7z"/>
<path d="M2145 4922 c-6 -4 -11 -14 -13 -22 -3 -12 0 -12 14 2 18 18 17 33 -1
20z"/>
<path d="M3740 4888 c0 -7 -3 -24 -6 -38 -5 -23 -5 -23 10 4 18 33 20 46 6 46
-5 0 -10 -6 -10 -12z"/>
<path d="M2184 4858 c-46 -51 -70 -82 -57 -75 12 8 97 107 91 107 -2 0 -17
-15 -34 -32z"/>
<path d="M2850 4870 c6 -11 13 -20 16 -20 2 0 0 9 -6 20 -6 11 -13 20 -16 20
-2 0 0 -9 6 -20z"/>
<path d="M2050 4854 c-51 -28 -94 -66 -50 -44 21 10 18 6 -12 -27 -21 -21 -38
-46 -38 -54 0 -9 35 19 80 63 100 100 103 107 20 62z"/>
<path d="M3697 4853 c-23 -43 -21 -52 4 -25 11 13 19 30 17 40 -3 13 -8 9 -21
-15z"/>
<path d="M1188 4815 c20 -44 56 -50 46 -7 -8 32 -4 28 -35 35 l-26 7 15 -35z"/>
<path d="M1558 4790 c81 -142 88 -151 105 -132 15 17 12 22 -54 92 -51 54 -65
65 -51 40z"/>
<path d="M3700 4780 c-6 -11 -8 -20 -6 -20 3 0 10 9 16 20 6 11 8 20 6 20 -3
0 -10 -9 -16 -20z"/>
<path d="M3029 4580 c22 -59 80 -174 80 -159 1 8 -10 39 -24 67 -14 29 -25 55
-25 59 0 5 -9 19 -20 33 l-20 25 9 -25z"/>
<path d="M3656 4273 c-3 -26 -9 -64 -12 -85 -5 -31 0 -45 37 -100 23 -34 53
-76 66 -91 13 -16 20 -33 17 -38 -3 -6 1 -18 10 -28 19 -20 12 -48 -12 -55
-32 -10 -147 -24 -172 -20 -14 2 -20 1 -13 -2 7 -3 9 -13 6 -22 -5 -16 -4 -16
8 -1 10 11 21 14 39 9 14 -5 19 -8 12 -9 -7 -1 -10 -6 -6 -12 4 -8 0 -8 -15 0
-11 7 -21 8 -21 3 0 -4 16 -16 35 -25 31 -15 35 -15 35 -1 0 23 42 -12 71 -58
13 -21 27 -38 31 -38 5 0 8 -6 8 -13 0 -7 7 -22 15 -33 13 -18 14 -18 8 5 -4
16 -2 22 5 18 5 -4 12 -1 15 5 3 7 5 4 4 -7 -1 -28 41 -109 79 -153 l32 -37
-5 29 c-6 28 -6 28 16 10 12 -11 36 -40 53 -66 29 -46 54 -65 41 -32 -5 12 5
10 43 -10 60 -32 79 -33 80 -3 1 16 -10 30 -40 49 -56 36 -124 96 -137 119 -9
17 -5 17 31 -6 23 -15 44 -24 46 -22 3 3 -11 15 -30 27 -20 12 -36 26 -36 31
0 5 -6 9 -13 9 -23 0 -127 151 -127 184 0 24 -35 63 -42 49 -3 -4 -4 -3 -2 3
1 7 -4 31 -12 54 -8 24 -21 78 -29 121 -11 65 -82 256 -105 282 -4 5 -10 -13
-14 -40z"/>
<path d="M1317 4213 c-13 -21 -39 -62 -57 -91 -34 -55 -106 -122 -132 -122 -9
0 -21 -6 -27 -14 -6 -8 -24 -16 -39 -19 -15 -3 -42 -9 -61 -14 l-34 -8 26 -12
c15 -7 27 -17 27 -23 0 -6 9 -14 21 -18 18 -7 3 -23 -120 -122 -78 -63 -136
-117 -130 -120 6 -4 -5 -20 -28 -38 -21 -17 -33 -31 -27 -32 6 0 22 10 36 23
27 24 88 50 88 37 0 -5 -10 -16 -22 -25 -31 -22 -181 -127 -204 -142 -17 -11
-16 -12 9 -7 17 4 27 2 27 -5 0 -6 7 -11 16 -11 8 0 13 -4 9 -9 -3 -5 2 -16
10 -25 19 -19 12 -23 -56 -32 l-54 -7 35 -9 c64 -16 93 -30 78 -39 -7 -5 -24
-9 -37 -9 -41 0 -10 -20 61 -40 71 -19 78 -36 15 -34 l-42 2 38 -11 c20 -6 36
-13 34 -16 -69 -125 -97 -218 -97 -331 l0 -85 18 28 c10 15 22 24 26 20 11
-11 40 -10 48 2 4 6 8 -1 8 -15 1 -19 3 -21 9 -10 5 8 11 62 14 120 6 103 20
165 53 235 17 37 21 40 43 26 11 -7 8 -22 -16 -82 -39 -95 -49 -143 -28 -135
9 3 15 0 15 -9 0 -25 17 -16 39 20 11 19 25 35 31 35 6 0 10 -45 10 -124 0
-115 7 -160 32 -213 6 -11 7 -27 3 -34 -6 -8 -4 -10 5 -4 10 6 12 4 7 -9 -4
-10 -7 -27 -7 -37 0 -11 -3 -18 -7 -16 -5 3 -7 -23 -5 -56 2 -34 5 -138 7
-231 2 -127 7 -180 20 -213 23 -59 27 -51 9 17 -19 75 -17 247 5 405 16 113
25 147 71 253 29 68 54 121 55 120 2 -2 17 -76 35 -166 31 -162 80 -323 126
-414 13 -26 26 -48 28 -48 2 0 -5 27 -16 60 -12 33 -17 64 -13 68 4 4 10 2 12
-4 2 -6 22 -36 44 -65 22 -30 50 -71 61 -92 29 -58 32 -39 4 35 -39 103 -66
220 -87 378 -19 144 -37 440 -26 430 3 -3 17 -63 31 -133 14 -70 41 -173 61
-230 20 -56 54 -155 75 -220 49 -148 108 -261 161 -313 l41 -39 -26 42 c-29
48 -33 61 -11 43 10 -9 15 -9 15 -1 0 21 16 11 34 -24 11 -19 21 -33 23 -31 2
2 -17 61 -42 132 -25 70 -45 130 -45 132 0 3 7 -1 15 -8 20 -16 20 -18 -20 80
-19 47 -34 101 -34 120 1 34 2 33 32 -30 l32 -65 5 65 5 65 24 -77 c25 -81 41
-100 41 -48 0 27 2 30 19 20 11 -5 26 -22 33 -38 7 -15 21 -27 30 -27 9 0 24
-9 32 -20 16 -20 16 -20 22 3 10 33 33 23 59 -26 17 -31 24 -38 29 -27 3 9 10
14 16 10 5 -3 13 7 16 22 11 43 35 76 47 64 6 -6 16 -106 23 -223 l11 -212
-43 -51 c-23 -27 -73 -86 -111 -130 -128 -149 -170 -238 -203 -426 -6 -35 -18
-86 -27 -112 -11 -34 -13 -67 -9 -110 3 -34 8 -87 11 -117 l5 -55 -25 60 -25
60 5 -60 c4 -41 1 -73 -9 -100 l-16 -40 5 70 c2 42 1 58 -3 40 -7 -27 -9 -28
-18 -12 -10 17 -12 15 -23 -15 -7 -18 -17 -41 -23 -52 -9 -17 -14 -44 -23
-121 -1 -16 -6 -59 -10 -95 -4 -36 -11 -73 -16 -82 -5 -9 -9 -23 -9 -30 1 -7
9 3 20 22 15 27 19 30 20 15 0 -16 2 -17 10 -5 13 21 24 5 16 -24 -7 -28 -72
-96 -92 -96 -33 0 -18 110 31 224 9 21 14 44 11 52 -8 20 19 114 74 253 53
138 67 187 50 176 -5 -3 -10 -10 -10 -15 0 -11 -101 -190 -107 -190 -15 0 22
226 39 236 7 5 9 -2 4 -20 -3 -14 -8 -38 -11 -53 l-5 -28 11 28 c6 15 15 27
20 27 5 0 9 7 9 16 0 9 6 14 13 11 31 -12 53 38 120 268 6 22 17 51 24 65 13
25 8 44 -6 21 -7 -11 -9 -11 -13 0 -3 8 -12 -2 -22 -25 -9 -22 -19 -36 -23
-33 -3 4 -12 2 -20 -5 -31 -25 -20 7 47 145 64 132 84 197 61 197 -12 0 -258
-227 -265 -245 -9 -26 8 -17 49 25 22 22 54 51 71 64 l30 24 -31 -112 c-38
-135 -44 -148 -90 -220 -44 -69 -162 -306 -198 -396 -14 -36 -31 -92 -36 -125
-6 -33 -16 -82 -22 -110 -5 -27 -8 -78 -4 -112 5 -62 -9 -266 -25 -336 -8 -37
-8 -38 11 -21 10 9 19 23 19 29 0 7 12 20 26 30 25 16 29 16 61 1 32 -15 34
-19 29 -54 -3 -20 -13 -107 -21 -192 -9 -85 -18 -170 -21 -188 l-6 -32 394 0
394 0 38 152 c21 83 42 163 48 177 10 24 11 25 17 6 11 -36 49 -100 70 -119
18 -17 21 -17 15 -3 -7 20 7 22 24 5 10 -10 11 -5 6 20 -4 21 -3 32 5 32 6 0
30 17 54 39 23 21 83 64 132 94 55 34 120 86 164 132 75 77 94 116 25 51 -46
-44 -71 -53 -91 -33 -19 19 -34 84 -28 127 l5 35 -11 -34 c-5 -18 -12 -32 -13
-30 -2 2 0 123 5 269 4 146 8 328 8 405 l0 140 -24 -70 c-13 -38 -65 -164
-115 -280 l-91 -210 4 80 c3 44 14 157 26 250 11 94 23 217 26 275 10 162 14
170 92 221 37 24 92 69 123 99 31 30 106 101 168 158 119 110 143 144 198 274
40 93 66 122 74 81 l5 -25 28 27 c24 25 32 25 28 2 -1 -5 3 -5 9 -2 7 4 14 -2
17 -14 8 -32 16 -26 36 27 11 26 22 56 27 67 10 27 40 130 40 140 0 4 -6 2
-14 -5 -13 -10 -13 -7 -3 20 10 25 13 28 19 13 5 -14 7 -11 7 10 1 15 15 73
31 129 17 55 30 105 30 109 0 24 -22 2 -61 -63 -24 -40 -62 -91 -84 -114 -54
-57 -75 -82 -75 -94 0 -6 -3 -10 -8 -10 -4 0 -15 -12 -24 -27 -13 -21 -18 -23
-18 -10 0 20 -18 22 -41 4 -8 -7 -35 -49 -58 -93 -36 -71 -179 -259 -210 -278
-12 -8 0 21 76 189 28 61 56 128 63 150 7 22 30 70 51 106 39 67 89 204 89
243 0 11 9 35 20 51 11 17 20 40 20 52 0 32 10 53 26 53 7 0 11 6 8 14 -3 8
-1 24 6 35 6 12 7 21 1 21 -5 0 -12 -7 -15 -16 -3 -8 -10 -13 -16 -9 -5 3 -12
-7 -15 -22 -20 -93 -30 -117 -64 -147 -115 -101 -126 -118 -150 -224 -26 -113
-55 -183 -107 -254 -57 -77 -100 -97 -258 -116 -75 -9 -137 -14 -140 -11 -3 2
-7 45 -10 94 -4 66 -3 80 4 50 5 -22 9 -56 10 -75 0 -39 15 -69 27 -57 4 5 1
12 -7 17 -8 6 -10 10 -4 10 10 0 17 23 26 87 1 7 7 14 15 17 9 4 11 14 7 32
-5 19 -4 25 5 20 6 -4 11 -1 11 8 0 9 -4 16 -10 16 -5 0 -10 5 -10 10 0 6 7
10 15 10 8 0 15 -4 15 -10 0 -5 5 -10 11 -10 6 0 9 6 6 13 -3 9 12 20 45 33
54 21 76 38 31 24 -125 -37 -196 -67 -203 -84 -6 -18 -7 -18 -13 -2 -6 14 -14
17 -40 12 -27 -5 -44 1 -92 30 -33 20 -96 56 -140 81 -90 51 -204 134 -252
182 -51 53 -127 313 -135 461 l-3 65 47 9 c45 9 46 10 41 40 -3 24 2 39 24 65
91 109 98 108 98 -12 0 -79 3 -97 23 -130 13 -20 34 -42 45 -49 21 -10 21 -10
5 8 -9 10 -21 31 -27 46 -10 26 -8 28 27 38 82 22 103 3 65 -58 -16 -25 -16
-26 -1 -14 31 25 57 95 60 163 2 58 -1 72 -24 107 -19 28 -40 45 -72 57 -26
10 -46 22 -46 26 0 5 -7 9 -15 9 -8 0 -15 -4 -15 -10 0 -5 -12 -13 -27 -16
-49 -12 -117 -51 -152 -88 -19 -19 -38 -33 -43 -30 -19 12 1 91 52 199 16 33
31 69 33 80 3 17 6 16 16 -10 15 -37 90 -135 103 -135 5 0 -4 17 -20 38 -28
36 -47 84 -43 109 1 6 -10 35 -23 65 -14 29 -31 76 -39 103 l-15 50 -1 -77
c-1 -75 -1 -76 -26 -74 -24 3 -25 1 -18 -38 3 -22 6 -45 7 -51 0 -24 -17 -116
-23 -120 -4 -2 -17 30 -30 70 -12 41 -30 80 -38 87 -14 12 -15 8 -9 -35 4 -27
18 -85 32 -129 25 -84 32 -168 14 -168 -6 0 -12 6 -14 13 -2 6 -16 53 -31 102
-15 50 -37 106 -49 125 -59 92 -106 259 -106 373 0 88 -5 104 -26 86 -19 -16
-29 13 -14 41 6 12 10 24 7 26 -2 2 -19 -24 -37 -58 -18 -35 -44 -76 -57 -91
-32 -39 -31 -14 4 87 20 56 25 80 16 83 -7 2 -9 11 -6 19 10 27 -7 14 -30 -23z
m663 -769 c0 -27 -7 -29 -33 -10 -16 13 -17 15 -2 30 21 20 35 12 35 -20z
m-1050 -194 c0 -5 -7 -10 -15 -10 -8 0 -15 5 -15 10 0 6 7 10 15 10 8 0 15 -4
15 -10z m1490 -760 c0 -5 -5 -10 -11 -10 -5 0 -7 5 -4 10 3 6 8 10 11 10 2 0
4 -4 4 -10z m774 -114 c-3 -15 -8 -25 -11 -23 -2 3 -1 17 3 31 3 15 8 25 11
23 2 -3 1 -17 -3 -31z m-1213 -513 l14 -48 -56 -61 c-30 -33 -75 -90 -98 -125
-24 -35 -39 -53 -35 -39 4 14 8 36 10 49 1 13 8 29 14 35 10 8 10 6 1 -11 -6
-13 -9 -23 -7 -23 3 0 13 14 22 31 8 17 11 29 6 25 -5 -3 -12 3 -15 13 -3 12
11 44 38 84 55 84 79 116 86 117 3 0 12 -21 20 -47z m-125 -280 c-36 -70 -62
-98 -30 -33 26 54 42 80 50 80 3 0 -7 -21 -20 -47z m6 -355 c-17 -27 -92 -296
-92 -327 0 -5 16 -19 35 -31 19 -12 33 -26 29 -31 -8 -13 -21 -11 -39 7 -23
24 -44 2 -43 -46 0 -24 -8 -53 -21 -72 -25 -39 -28 -18 -7 39 8 21 17 72 21
113 4 48 22 121 51 205 48 142 63 175 77 175 5 0 0 -15 -11 -32z m179 9 c13
-7 37 -21 52 -31 27 -19 28 -19 51 3 l23 22 -4 -24 c-4 -22 -2 -24 29 -21 77
6 89 -18 55 -103 -13 -33 -30 -84 -37 -114 -31 -137 -21 -123 -105 -138 -41
-8 -92 -11 -112 -8 -34 6 -166 67 -185 85 -9 9 45 237 61 256 12 14 84 15 153
0 24 -5 26 -8 17 -31 -5 -13 -7 -29 -3 -34 3 -5 -6 -13 -19 -18 -24 -9 -77
-65 -77 -81 0 -4 8 -18 19 -31 18 -22 18 -23 -8 -46 l-26 -24 30 6 c57 12 130
51 144 78 13 24 12 31 -12 78 -19 39 -23 58 -16 75 4 13 12 24 16 24 20 -2
100 -27 122 -39 17 -9 26 -10 34 -2 25 25 -17 40 -218 82 -79 16 -101 28 -52
29 20 0 37 5 37 10 0 13 3 13 31 -3z m266 -203 c3 -38 -3 -102 -17 -179 -12
-66 -25 -145 -30 -175 -4 -30 -13 -68 -19 -85 -6 -16 -13 -42 -16 -57 -6 -33
-21 -36 -30 -8 -4 11 -17 31 -29 43 -13 14 -28 47 -36 85 -7 34 -16 60 -19 56
-3 -3 -13 -36 -22 -72 l-16 -67 -8 60 c-6 42 -4 76 6 114 l14 54 55 4 c30 2
58 10 62 16 8 13 25 85 38 164 11 66 39 128 52 115 5 -5 12 -36 15 -68z m-279
-38 c9 -19 8 -25 -4 -30 -9 -4 -18 3 -23 17 -16 40 9 52 27 13z m-428 -86
c-10 -41 -19 -64 -19 -52 -1 26 28 136 34 130 2 -2 -4 -37 -15 -78z m700 -301
c6 -23 9 -48 5 -57 -5 -14 -9 -13 -25 8 -11 14 -17 31 -15 38 3 8 5 22 5 33 0
34 19 20 30 -22z m-20 -123 c0 -29 3 -68 7 -86 4 -23 3 -31 -5 -26 -13 8 -37
83 -33 106 10 77 31 81 31 6z m34 -2 c3 -8 2 -12 -4 -9 -6 3 -10 10 -10 16 0
14 7 11 14 -7z"/>
<path d="M3648 3953 c-4 -23 13 -61 30 -68 17 -6 92 5 92 14 -1 7 -78 57 -102
66 -11 4 -17 0 -20 -12z"/>
<path d="M2644 3945 c-15 -15 -85 -187 -80 -193 7 -7 76 136 76 157 0 11 5 23
10 26 6 3 10 -3 10 -15 0 -25 29 -72 40 -65 8 5 -11 51 -34 86 -9 13 -14 14
-22 4z"/>
<path d="M1940 3903 c0 -25 -23 -36 -40 -20 -10 10 -11 -1 -6 -52 5 -45 4 -66
-4 -71 -9 -6 -9 -13 -1 -28 6 -11 11 -36 12 -54 0 -27 2 -29 8 -13 8 19 9 19
16 -5 l9 -25 6 25 c4 14 3 29 -2 35 -12 13 -10 35 4 35 6 0 9 -3 5 -6 -3 -3 6
-28 20 -56 14 -27 26 -48 28 -46 4 4 -44 290 -50 296 -3 3 -5 -4 -5 -15z"/>
<path d="M2755 3890 c4 -6 11 -8 16 -5 14 9 11 15 -7 15 -8 0 -12 -5 -9 -10z"/>
<path d="M1827 3844 c-10 -10 -9 -36 1 -30 5 3 9 -8 10 -24 0 -16 6 -37 12
-47 9 -14 10 -8 6 29 -5 52 -18 83 -29 72z"/>
<path d="M2740 3786 c0 -7 23 -36 63 -80 l29 -31 -26 45 c-22 39 -66 83 -66
66z"/>
<path d="M2060 3773 c0 -4 8 -17 16 -28 15 -20 16 -20 12 4 -3 22 -28 44 -28
24z"/>
<path d="M2870 3701 c0 -4 12 -18 26 -32 l26 -24 -12 27 c-12 26 -40 46 -40
29z"/>
<path d="M2045 3668 c4 -13 11 -27 16 -33 5 -5 4 5 -2 23 -12 36 -24 44 -14
10z"/>
<path d="M2729 3631 c-72 -10 -155 -56 -184 -101 -13 -19 -22 -36 -21 -37 1
-2 26 6 54 17 80 30 80 30 74 -49 -6 -92 12 -163 53 -206 18 -19 40 -35 48
-35 11 0 1 14 -26 41 -23 22 -36 37 -28 33 10 -5 13 -3 9 8 -4 9 -9 37 -13 64
-6 51 -5 51 33 -3 12 -17 13 -17 7 2 -5 20 -5 20 10 1 8 -11 15 -23 15 -28 0
-4 20 -8 43 -8 31 0 49 6 62 20 38 41 38 14 2 -72 -19 -45 -10 -48 28 -11 44
44 68 101 67 160 0 29 1 53 3 53 2 0 9 -27 16 -60 14 -72 29 -88 60 -67 22 16
44 13 68 -11 17 -16 28 -5 63 63 11 22 24 42 28 45 5 3 10 16 11 30 2 13 12
33 22 42 20 21 21 33 4 50 -8 6 -11 23 -9 36 3 15 1 23 -5 19 -6 -4 -13 -24
-17 -45 -3 -21 -13 -62 -22 -91 -16 -49 -18 -50 -36 -35 -10 10 -18 26 -18 36
0 18 -1 18 -16 3 -18 -18 -30 -11 -36 20 -2 11 -31 38 -68 63 -63 41 -87 52
-75 32 3 -5 -16 -2 -42 6 -66 21 -99 23 -164 15z m63 -128 c20 -18 24 -58 7
-68 -5 -4 -21 6 -34 21 -18 21 -21 32 -14 46 12 22 18 22 41 1z"/>
<path d="M3890 3405 c0 -24 84 -135 102 -135 19 0 5 30 -37 76 -25 27 -45 52
-45 56 0 5 -4 8 -10 8 -5 0 -10 -2 -10 -5z"/>
<path d="M3611 3350 c0 -8 4 -22 9 -30 12 -18 12 -2 0 25 -6 13 -9 15 -9 5z"/>
<path d="M3870 3332 c0 -13 61 -65 67 -58 8 7 -5 23 -37 46 -17 12 -30 17 -30
12z"/>
<path d="M4056 3276 c3 -8 22 -20 42 -27 21 -6 42 -16 49 -21 7 -5 22 -8 35
-6 22 4 22 5 -7 18 -16 8 -36 20 -43 27 -7 7 -16 13 -20 14 -4 0 -19 3 -34 5
-21 4 -26 1 -22 -10z"/>
<path d="M4010 3270 c0 -5 5 -10 11 -10 5 0 7 5 4 10 -3 6 -8 10 -11 10 -2 0
-4 -4 -4 -10z"/>
<path d="M3938 3203 c5 -10 20 -71 32 -136 18 -87 27 -116 37 -113 7 3 73 13
146 21 165 20 211 33 102 29 -44 -1 -66 0 -50 3 17 2 34 9 40 14 5 5 22 9 38
9 23 0 27 3 18 13 -6 8 -23 13 -38 12 -16 -1 -19 0 -8 2 11 3 26 10 33 15 7 6
42 10 77 10 36 -1 65 3 65 8 0 6 -10 10 -22 10 -13 0 -36 7 -53 16 -16 8 -59
18 -95 21 -36 3 -72 10 -81 14 -15 8 -232 69 -245 69 -2 0 -1 -8 4 -17z m107
-203 c3 -5 1 -10 -4 -10 -6 0 -11 5 -11 10 0 6 2 10 4 10 3 0 8 -4 11 -10z"/>
<path d="M4408 3163 c6 -2 18 -2 25 0 6 3 1 5 -13 5 -14 0 -19 -2 -12 -5z"/>
<path d="M3643 3083 c3 -5 2 -52 -2 -105 -3 -54 -3 -98 1 -98 5 0 8 -24 8 -52
0 -38 3 -49 10 -38 7 11 10 6 10 -20 0 -55 18 -17 26 56 9 91 -24 264 -52 264
-3 0 -3 -3 -1 -7z"/>
<path d="M3590 2963 c-1 -21 -7 -69 -14 -108 -8 -38 -12 -72 -11 -74 8 -7 45
164 45 207 0 6 -4 12 -10 12 -5 0 -10 -17 -10 -37z"/>
<path d="M3785 2953 c14 -151 14 -205 1 -288 -9 -49 -14 -91 -12 -93 2 -2 11
28 20 67 24 104 21 351 -4 351 -5 0 -7 -17 -5 -37z"/>
<path d="M4020 2921 c0 -5 10 -11 23 -15 33 -9 89 -7 83 2 -3 5 18 10 46 11
95 3 63 11 -45 11 -59 0 -107 -4 -107 -9z"/>
<path d="M686 2760 c17 -131 82 -381 118 -446 20 -38 19 -24 -4 65 -11 41 -20
85 -20 98 0 45 17 22 40 -53 20 -68 23 -73 36 -57 9 13 13 14 14 4 0 -16 52
-152 57 -148 4 5 -71 221 -79 227 -4 3 -18 72 -30 153 -12 81 -26 147 -30 147
-5 0 -8 -4 -8 -9 0 -5 -6 -16 -14 -24 -12 -11 -13 -27 -5 -78 5 -35 11 -80 14
-99 5 -31 3 -30 -10 10 -8 25 -15 62 -15 83 0 21 -4 36 -9 33 -4 -3 -6 7 -4
22 3 23 2 24 -6 7 -10 -23 -10 -23 -35 60 l-15 50 5 -45z"/>
<path d="M3616 2739 c-18 -58 -22 -105 -7 -79 11 20 33 122 27 127 -3 3 -12
-19 -20 -48z"/>
<path d="M3658 2705 c-4 -16 -9 -39 -12 -50 -4 -11 1 -5 9 14 9 18 14 41 13
50 -2 9 -7 3 -10 -14z"/>
<path d="M3495 2459 c-9 -17 -15 -33 -13 -35 3 -2 12 12 21 31 21 43 13 47 -8
4z"/>
<path d="M3350 2440 c-12 -23 -36 -63 -54 -88 -17 -26 -38 -59 -46 -74 -7 -16
-18 -28 -24 -28 -6 -1 -19 -17 -28 -36 l-16 -36 26 23 c36 33 64 66 84 101 9
16 23 37 30 46 18 21 60 123 54 130 -3 2 -14 -15 -26 -38z"/>
<path d="M3285 2227 c-44 -61 -97 -144 -117 -185 -20 -40 -41 -79 -47 -86 -11
-13 -62 -149 -57 -153 1 -1 18 21 37 50 38 59 103 98 167 100 25 2 38 7 39 17
3 27 44 264 55 313 5 27 8 50 6 52 -2 2 -39 -46 -83 -108z"/>
<path d="M980 1973 c0 -5 9 -18 20 -28 11 -10 20 -15 20 -11 0 4 -9 16 -20 28
-11 12 -20 17 -20 11z"/>
<path d="M2842 1947 c-44 -45 -40 -54 5 -12 21 19 35 36 32 39 -3 3 -20 -9
-37 -27z"/>
<path d="M3648 1863 c13 -9 46 -33 74 -52 47 -33 52 -41 68 -101 9 -36 42
-141 73 -235 30 -93 72 -221 92 -283 35 -110 93 -246 230 -542 37 -80 84 -199
105 -265 20 -66 47 -140 58 -165 12 -25 22 -55 22 -68 0 -27 -22 -73 -58 -119
l-24 -33 135 0 c151 0 143 -4 157 77 4 24 6 43 4 43 -1 0 -19 -22 -40 -50 -21
-27 -39 -48 -41 -46 -2 1 8 33 22 70 35 93 32 108 -10 60 l-35 -39 16 40 c28
69 34 98 33 155 l0 55 -19 -50 c-10 -27 -25 -63 -35 -80 l-17 -30 6 36 c4 22
1 50 -9 72 -8 20 -15 67 -16 104 0 37 -4 91 -8 118 -6 47 -7 48 -14 21 -16
-58 -27 -4 -27 129 0 123 -11 198 -29 209 -4 3 -7 -25 -5 -62 4 -110 -10 -143
-16 -37 -3 50 -3 99 1 109 3 11 0 31 -7 45 -7 14 -15 37 -17 51 -11 56 -40
147 -59 178 -11 17 -16 32 -11 32 12 -1 48 -33 61 -55 11 -19 11 -19 12 3 0
12 -4 22 -10 22 -5 0 -10 6 -10 13 0 6 -13 26 -28 42 -26 27 -39 65 -22 65 3
0 22 -12 41 -26 34 -25 79 -52 69 -41 -120 135 -214 232 -280 289 -111 95
-107 90 -85 83 11 -4 62 -22 114 -41 51 -19 96 -33 98 -30 3 2 -32 23 -78 45
-98 49 -81 54 34 9 85 -33 117 -40 117 -27 0 15 -22 22 -30 9 -5 -9 -9 -8 -13
4 -4 9 -49 28 -109 47 -200 61 -261 85 -269 106 -6 17 -4 20 11 16 10 -3 21 0
24 6 4 6 22 12 39 12 25 1 22 3 -18 11 -27 5 -65 13 -82 17 -23 7 -33 6 -33
-2 0 -8 -4 -7 -9 2 -5 7 -13 11 -19 8 -5 -4 -17 2 -27 13 -9 10 -40 31 -69 45
-28 14 -41 18 -28 8z"/>
<path d="M2905 1823 c-47 -63 -45 -73 4 -13 17 22 28 40 24 40 -4 0 -17 -13
-28 -27z"/>
<path d="M2797 1712 c-19 -21 -47 -106 -46 -137 1 -11 6 -2 11 20 6 22 14 42
18 45 7 6 42 90 36 90 -1 0 -10 -8 -19 -18z"/>
<path d="M2924 1693 c-10 -10 -32 -50 -51 -90 -18 -39 -38 -73 -44 -75 -10 -3
-38 -128 -38 -168 0 -8 19 39 42 105 23 66 56 140 72 165 30 44 48 80 40 80
-2 0 -11 -8 -21 -17z"/>
<path d="M2975 1520 c-3 -5 -2 -10 4 -10 5 0 13 5 16 10 3 6 2 10 -4 10 -5 0
-13 -4 -16 -10z"/>
<path d="M2927 1484 c-10 -13 -31 -48 -46 -77 -15 -29 -45 -83 -66 -120 -37
-67 -37 -69 -33 -163 4 -103 -6 -105 -20 -3 l-8 64 -22 -75 c-13 -41 -38 -124
-57 -184 -19 -60 -32 -113 -29 -118 3 -4 16 -8 30 -8 33 0 73 -21 108 -59 33
-35 75 -41 97 -15 11 14 7 22 -31 58 -25 23 -54 47 -65 54 -19 11 -19 12 10
36 34 28 139 66 182 66 16 0 34 -5 41 -12 6 -6 14 -10 16 -7 3 3 14 56 26 119
21 114 24 221 9 250 -5 8 -13 33 -19 55 -12 46 -33 74 -72 94 -22 11 -26 19
-21 42 7 35 -6 37 -30 3z m13 -43 c0 -5 -7 -14 -15 -21 -16 -14 -18 -10 -9 14
6 17 24 22 24 7z m-100 -713 c0 -4 -11 2 -25 14 -14 12 -25 26 -25 32 0 5 11
-1 25 -14 14 -13 25 -27 25 -32z"/>
<path d="M1326 1400 c10 -39 55 -123 61 -116 9 8 -24 87 -48 116 l-20 25 7
-25z"/>
<path d="M2782 1315 c0 -16 2 -22 5 -12 2 9 2 23 0 30 -3 6 -5 -1 -5 -18z"/>
<path d="M3097 968 c-40 -55 -60 -88 -54 -94 5 -6 87 104 87 118 0 15 -9 8
-33 -24z"/>
<path d="M1491 754 c0 -11 3 -14 6 -6 3 7 2 16 -1 19 -3 4 -6 -2 -5 -13z"/>
<path d="M1477 693 c-4 -3 -7 -13 -7 -22 1 -13 3 -13 11 2 11 19 8 33 -4 20z"/>
<path d="M2789 643 c-13 -16 -12 -17 4 -4 16 13 21 21 13 21 -2 0 -10 -8 -17
-17z"/>
<path d="M1140 264 c0 -5 -17 -27 -38 -49 -20 -22 -57 -65 -82 -95 -25 -30
-48 -58 -53 -61 -4 -3 -2 -19 4 -35 l12 -29 7 32 c8 35 9 37 87 130 56 67 78
102 69 111 -3 3 -6 1 -6 -4z"/>
<path d="M2363 167 c4 -10 7 -30 7 -43 0 -13 4 -24 9 -24 10 0 -3 68 -15 78
-4 4 -4 -1 -1 -11z"/>
</g>
</svg>
